<?xml version="1.0" standalone="no"?>
<!DOCTYPE svg PUBLIC "-//W3C//DTD SVG 20010904//EN"
 "http://www.w3.org/TR/2001/REC-SVG-20010904/DTD/svg10.dtd">
<svg version="1.0" xmlns="http://www.w3.org/2000/svg"
 width="512.000000pt" height="512.000000pt" viewBox="0 0 512.000000 512.000000"
 preserveAspectRatio="xMidYMid meet">
<metadata>
Created by potrace 1.14, written by Peter Selinger 2001-2017
</metadata>
<g transform="translate(0.000000,512.000000) scale(0.100000,-0.100000)"
fill="#000000" stroke="none">
<path d="M2330 5010 c-130 -14 -263 -38 -395 -72 -197 -51 -415 -138 -428
-172 -4 -9 -14 -12 -27 -9 -42 11 -325 -166 -499 -312 -467 -393 -766 -932
-857 -1545 -24 -157 -26 -506 -4 -521 19 -13 152 -4 344 22 148 21 149 21 175
1 36 -27 37 -87 1 -113 -32 -23 -138 -37 -340 -46 -87 -3 -163 -9 -169 -12 -6
-4 -3 -43 9 -106 48 -272 147 -546 278 -773 35 -60 37 -62 77 -62 138 0 620
112 839 194 94 36 149 35 187 -3 54 -54 33 -151 -38 -179 -124 -50 -528 -141
-723 -163 -58 -6 -122 -16 -143 -21 l-39 -9 18 -27 c73 -113 322 -364 476
-480 355 -266 732 -421 1178 -483 122 -17 496 -18 615 -1 556 78 1015 300
1404 677 408 397 652 880 732 1455 18 124 18 495 1 620 -49 350 -197 752 -379
1030 -342 521 -876 901 -1463 1043 -80 19 -197 43 -260 52 -132 20 -442 28
-570 15z m1195 -455 c32 -31 32 -62 0 -192 -69 -287 -194 -596 -356 -882 -48
-85 -64 -88 143 30 85 49 148 79 166 79 36 0 82 -43 82 -77 0 -13 -79 -497
-175 -1076 l-175 -1052 -31 -28 c-25 -23 -38 -28 -60 -23 -16 3 -142 52 -281
110 -139 58 -276 114 -305 125 l-52 20 -68 -82 c-38 -45 -111 -134 -162 -197
-52 -63 -103 -123 -114 -132 -28 -26 -79 -23 -111 7 l-26 24 0 258 0 258 441
540 c242 297 501 613 575 703 73 89 132 162 129 162 -5 0 -320 -272 -1127
-972 l-298 -258 -237 99 c-131 54 -255 104 -277 112 -73 26 -101 103 -54 146
13 12 228 139 478 284 250 144 570 328 711 410 403 232 500 289 544 319 35 24
54 53 127 197 180 352 279 636 349 1007 14 76 42 106 99 106 30 0 47 -6 65
-25z m-2070 -525 c4 -13 -1 -31 -14 -49 -51 -72 -240 -224 -375 -303 -77 -45
-231 -111 -246 -106 -6 2 31 27 82 57 141 84 242 163 378 297 127 126 162 146
175 104z m653 -16 c48 -34 18 -98 -135 -289 -93 -116 -266 -286 -373 -366
-123 -91 -313 -199 -327 -185 -2 2 60 55 139 118 230 185 423 399 568 630 46
74 74 104 100 107 3 1 16 -6 28 -15z m2500 -444 c39 -24 66 -81 59 -125 -11
-70 -182 -430 -302 -641 -121 -210 -326 -501 -470 -669 -220 -255 -615 -624
-623 -581 -2 8 3 52 12 96 l15 80 113 128 c151 168 240 277 325 392 261 356
474 743 618 1122 26 68 54 136 62 151 32 63 127 86 191 47z"/>
</g>
</svg>
